<svg width="18" height="19" viewBox="0 0 18 19" fill="none" xmlns="http://www.w3.org/2000/svg">
<path d="M14.657 12.328L13.243 10.914L14.657 9.5C15.0284 9.12856 15.3231 8.68759 15.5241 8.20228C15.7251 7.71696 15.8286 7.19681 15.8286 6.6715C15.8286 6.1462 15.7251 5.62605 15.5241 5.14073C15.3231 4.65542 15.0284 4.21445 14.657 3.843C14.2856 3.47156 13.8446 3.17691 13.3593 2.97589C12.874 2.77487 12.3538 2.6714 11.8285 2.6714C11.3032 2.6714 10.783 2.77487 10.2977 2.97589C9.81241 3.17691 9.37144 3.47156 9 3.843L7.586 5.257L6.172 3.843L7.586 2.429C8.71431 1.31892 10.2356 0.699659 11.8184 0.706104C13.4012 0.71255 14.9174 1.34418 16.0366 2.46341C17.1558 3.58265 17.7875 5.0988 17.7939 6.68162C17.8003 8.26444 17.1811 9.78569 16.071 10.914L14.657 12.328ZM11.828 15.157L10.414 16.571C9.85852 17.1356 9.19675 17.5846 8.46686 17.8922C7.73698 18.1998 6.95341 18.3598 6.16138 18.363C5.36934 18.3662 4.58451 18.2126 3.85214 17.911C3.11977 17.6094 2.45437 17.1658 1.89431 16.6057C1.33425 16.0456 0.890618 15.3802 0.589007 14.6479C0.287396 13.9155 0.133772 13.1307 0.136997 12.3386C0.140222 11.5466 0.300232 10.763 0.607798 10.0331C0.915363 9.30325 1.3644 8.64148 1.929 8.086L3.343 6.672L4.757 8.086L3.343 9.5C2.97155 9.87145 2.67691 10.3124 2.47589 10.7977C2.27486 11.283 2.1714 11.8032 2.1714 12.3285C2.1714 12.8538 2.27486 13.374 2.47589 13.8593C2.67691 14.3446 2.97155 14.7856 3.343 15.157C3.71444 15.5284 4.15541 15.8231 4.64072 16.0241C5.12604 16.2251 5.6462 16.3286 6.1715 16.3286C6.6968 16.3286 7.21696 16.2251 7.70227 16.0241C8.18759 15.8231 8.62855 15.5284 9 15.157L10.414 13.743L11.828 15.157ZM11.828 5.257L13.243 6.672L6.172 13.742L4.757 12.328L11.828 5.258V5.257Z" fill="white"/>
</svg>
